<svg width="24" height="24" viewBox="0 0 24 24" fill="none" xmlns="http://www.w3.org/2000/svg">
<path d="M20.7661 0H3.23441C1.44833 0 0.000366211 1.44791 0.000366211 3.23405V20.7658C0.000366211 22.552 1.44828 23.9999 3.23441 23.9999H11.8809L11.8957 15.4236H9.66758C9.37802 15.4236 9.143 15.1895 9.14189 14.8999L9.1312 12.1354C9.13009 11.8443 9.36581 11.6077 9.65695 11.6077H11.881V8.93651C11.881 5.83661 13.7742 4.14869 16.5395 4.14869H18.8087C19.099 4.14869 19.3344 4.38406 19.3344 4.67444V7.00547C19.3344 7.29573 19.0992 7.53104 18.809 7.53122L17.4164 7.53187C15.9126 7.53187 15.6214 8.24648 15.6214 9.29522V11.6078H18.9259C19.2407 11.6078 19.485 11.8827 19.4479 12.1954L19.1203 14.9599C19.0889 15.2244 18.8646 15.4237 18.5982 15.4237H15.6361L15.6214 24H20.7662C22.5523 24 24.0002 22.5521 24.0002 20.766V3.23405C24.0001 1.44791 22.5522 0 20.7661 0Z" fill="#808080"/>
</svg>
